# xmcd
#
# Track frame offsets:
#	150
#	15937
#	26881
#
# Disc length: 579 seconds
# Revision: 0
# Processed by: cddbd v1.5.2PL0 Copyright (c) Steve Scherf et al.
# Submitted via: dBpowerAMP V12.0
#
DISCID=17024103
DTITLE=Tara NaySmith - Daddy's Hands
DYEAR=1900
DGENRE=Country
TTITLE0=Daddy's Hands
TTITLE1=Paper Roses
TTITLE2=Cootamundra Wattle
EXTD=
EXTT0=
EXTT1=
EXTT2=
PLAYORDER=
